<svg width="247" height="49" viewBox="0 0 247 49" fill="none" xmlns="http://www.w3.org/2000/svg">
<path d="M0.272461 1.13574H16.4102C19.6003 1.13574 22.1719 2.03906 24.125 3.8457C26.0781 5.63607 27.0547 8.15885 27.0547 11.4141C27.0547 14.2135 26.1839 16.6549 24.4424 18.7383C22.7008 20.8053 20.0234 21.8389 16.4102 21.8389H5.13086V37H0.272461V1.13574ZM22.1475 11.4385C22.1475 8.80176 21.1709 7.01139 19.2178 6.06738C18.1436 5.56283 16.6706 5.31055 14.7988 5.31055H5.13086V17.7373H14.7988C16.9798 17.7373 18.7458 17.2734 20.0967 16.3457C21.4639 15.418 22.1475 13.7822 22.1475 11.4385ZM32.6943 10.8525H36.8691V15.3691C37.2109 14.4902 38.0492 13.4242 39.3838 12.1709C40.7184 10.9014 42.2565 10.2666 43.998 10.2666C44.0794 10.2666 44.2178 10.2747 44.4131 10.291C44.6084 10.3073 44.9421 10.3398 45.4141 10.3887V15.0273C45.1536 14.9785 44.9095 14.946 44.6816 14.9297C44.4701 14.9134 44.234 14.9053 43.9736 14.9053C41.7601 14.9053 40.0592 15.6214 38.8711 17.0537C37.6829 18.4697 37.0889 20.1055 37.0889 21.9609V37H32.6943V10.8525ZM60.1113 10.2666C61.9668 10.2666 63.7653 10.7061 65.5068 11.585C67.2484 12.4476 68.5749 13.5706 69.4863 14.9541C70.3652 16.2725 70.9512 17.8105 71.2441 19.5684C71.5046 20.7728 71.6348 22.6934 71.6348 25.3301H52.4697C52.5511 27.9831 53.1777 30.1152 54.3496 31.7266C55.5215 33.3216 57.3363 34.1191 59.7939 34.1191C62.0889 34.1191 63.9199 33.3623 65.2871 31.8486C66.0684 30.9697 66.6217 29.9525 66.9473 28.7969H71.2686C71.1546 29.7572 70.7721 30.8314 70.1211 32.0195C69.4863 33.1914 68.7702 34.1517 67.9727 34.9004C66.638 36.2025 64.986 37.0814 63.0166 37.5371C61.9587 37.7975 60.7624 37.9277 59.4277 37.9277C56.1725 37.9277 53.4137 36.7477 51.1514 34.3877C48.889 32.0114 47.7578 28.6911 47.7578 24.4268C47.7578 20.2275 48.8971 16.8177 51.1758 14.1973C53.4544 11.5768 56.4329 10.2666 60.1113 10.2666ZM67.1182 21.8389C66.9391 19.9346 66.5241 18.4128 65.873 17.2734C64.6686 15.1576 62.6585 14.0996 59.8428 14.0996C57.8245 14.0996 56.1318 14.832 54.7646 16.2969C53.3975 17.7454 52.6732 19.5928 52.5918 21.8389H67.1182ZM79.8379 24.2314C79.8379 27.0309 80.432 29.3747 81.6201 31.2627C82.8083 33.1507 84.7126 34.0947 87.333 34.0947C89.3675 34.0947 91.0358 33.224 92.3379 31.4824C93.6562 29.7246 94.3154 27.21 94.3154 23.9385C94.3154 20.6344 93.64 18.193 92.2891 16.6143C90.9382 15.0192 89.2699 14.2217 87.2842 14.2217C85.0706 14.2217 83.2721 15.068 81.8887 16.7607C80.5215 18.4535 79.8379 20.9437 79.8379 24.2314ZM86.4541 10.3887C88.4561 10.3887 90.1325 10.8118 91.4834 11.6582C92.2646 12.1465 93.1517 13.001 94.1445 14.2217V1.01367H98.3682V37H94.4131V33.3623C93.3877 34.9736 92.1751 36.1374 90.7754 36.8535C89.3757 37.5697 87.7725 37.9277 85.9658 37.9277C83.0524 37.9277 80.5296 36.707 78.3975 34.2656C76.2653 31.8079 75.1992 28.5446 75.1992 24.4756C75.1992 20.667 76.1676 17.3711 78.1045 14.5879C80.0576 11.7884 82.8408 10.3887 86.4541 10.3887ZM114.115 10.3887C116.166 10.3887 117.956 10.8932 119.486 11.9023C120.316 12.472 121.163 13.3021 122.025 14.3926V11.0967H126.078V34.876C126.078 38.1963 125.59 40.8167 124.613 42.7373C122.79 46.2855 119.348 48.0596 114.286 48.0596C111.47 48.0596 109.102 47.4248 107.182 46.1553C105.261 44.902 104.187 42.9326 103.959 40.2471H108.427C108.638 41.4189 109.062 42.3223 109.696 42.957C110.689 43.9336 112.252 44.4219 114.384 44.4219C117.753 44.4219 119.958 43.2337 121 40.8574C121.618 39.4577 121.903 36.9593 121.854 33.3623C120.976 34.6969 119.918 35.6898 118.681 36.3408C117.444 36.9919 115.808 37.3174 113.773 37.3174C110.941 37.3174 108.459 36.3164 106.327 34.3145C104.211 32.2962 103.153 28.9678 103.153 24.3291C103.153 19.9508 104.219 16.5329 106.352 14.0752C108.5 11.6175 111.088 10.3887 114.115 10.3887ZM122.025 23.8164C122.025 20.5775 121.358 18.1768 120.023 16.6143C118.689 15.0518 116.988 14.2705 114.921 14.2705C111.828 14.2705 109.713 15.7191 108.573 18.6162C107.971 20.1624 107.67 22.1888 107.67 24.6953C107.67 27.6413 108.264 29.8874 109.452 31.4336C110.657 32.9635 112.268 33.7285 114.286 33.7285C117.444 33.7285 119.665 32.3044 120.951 29.4561C121.667 27.8447 122.025 25.9648 122.025 23.8164ZM132.719 10.9746H137.187V37H132.719V10.9746ZM132.719 1.13574H137.187V6.11621H132.719V1.13574ZM159.55 0.15918C164.091 0.15918 167.615 1.35547 170.121 3.74805C172.628 6.14062 174.019 8.85872 174.296 11.9023H169.56C169.022 9.59115 167.948 7.76009 166.337 6.40918C164.742 5.05827 162.496 4.38281 159.599 4.38281C156.067 4.38281 153.21 5.62793 151.029 8.11816C148.865 10.5921 147.782 14.3926 147.782 19.5195C147.782 23.7188 148.759 27.1286 150.712 29.749C152.681 32.3532 155.611 33.6553 159.501 33.6553C163.082 33.6553 165.808 32.2799 167.68 29.5293C168.673 28.0807 169.413 26.1764 169.901 23.8164H174.638C174.215 27.5924 172.815 30.7581 170.438 33.3135C167.59 36.3896 163.749 37.9277 158.915 37.9277C154.748 37.9277 151.249 36.6663 148.417 34.1436C144.69 30.807 142.826 25.6556 142.826 18.6895C142.826 13.3997 144.226 9.06217 147.025 5.67676C150.053 1.99837 154.228 0.15918 159.55 0.15918ZM183.354 30.042C183.354 31.3115 183.817 32.3125 184.745 33.0449C185.673 33.7773 186.771 34.1436 188.041 34.1436C189.587 34.1436 191.085 33.7855 192.533 33.0693C194.975 31.8812 196.195 29.9362 196.195 27.2344V23.6943C195.658 24.0361 194.966 24.321 194.12 24.5488C193.274 24.7767 192.444 24.9395 191.63 25.0371L188.969 25.3789C187.374 25.5905 186.177 25.9242 185.38 26.3799C184.029 27.1449 183.354 28.3656 183.354 30.042ZM193.998 21.1553C195.007 21.0251 195.683 20.6019 196.024 19.8857C196.22 19.4951 196.317 18.9336 196.317 18.2012C196.317 16.7038 195.78 15.6214 194.706 14.9541C193.648 14.2705 192.126 13.9287 190.141 13.9287C187.846 13.9287 186.218 14.5472 185.258 15.7842C184.721 16.4678 184.371 17.485 184.208 18.8359H180.106C180.188 15.6133 181.229 13.3753 183.231 12.1221C185.25 10.8525 187.585 10.2178 190.238 10.2178C193.314 10.2178 195.813 10.8037 197.733 11.9756C199.638 13.1475 200.59 14.9704 200.59 17.4443V32.5078C200.59 32.9635 200.679 33.3298 200.858 33.6064C201.054 33.8831 201.452 34.0215 202.055 34.0215C202.25 34.0215 202.47 34.0133 202.714 33.9971C202.958 33.9645 203.218 33.9238 203.495 33.875V37.1221C202.812 37.3174 202.291 37.4395 201.933 37.4883C201.575 37.5371 201.086 37.5615 200.468 37.5615C198.954 37.5615 197.855 37.0244 197.172 35.9502C196.814 35.3805 196.562 34.5749 196.415 33.5332C195.52 34.7051 194.234 35.7223 192.558 36.585C190.881 37.4476 189.034 37.8789 187.016 37.8789C184.59 37.8789 182.605 37.1465 181.059 35.6816C179.529 34.2005 178.764 32.3532 178.764 30.1396C178.764 27.7145 179.521 25.8346 181.034 24.5C182.548 23.1654 184.534 22.3434 186.991 22.0342L193.998 21.1553ZM207.938 10.8525H212.113V15.3691C212.455 14.4902 213.293 13.4242 214.628 12.1709C215.963 10.9014 217.501 10.2666 219.242 10.2666C219.324 10.2666 219.462 10.2747 219.657 10.291C219.853 10.3073 220.186 10.3398 220.658 10.3887V15.0273C220.398 14.9785 220.154 14.946 219.926 14.9297C219.714 14.9134 219.478 14.9053 219.218 14.9053C217.004 14.9053 215.303 15.6214 214.115 17.0537C212.927 18.4697 212.333 20.1055 212.333 21.9609V37H207.938V10.8525ZM235.355 10.2666C237.211 10.2666 239.009 10.7061 240.751 11.585C242.493 12.4476 243.819 13.5706 244.73 14.9541C245.609 16.2725 246.195 17.8105 246.488 19.5684C246.749 20.7728 246.879 22.6934 246.879 25.3301H227.714C227.795 27.9831 228.422 30.1152 229.594 31.7266C230.766 33.3216 232.58 34.1191 235.038 34.1191C237.333 34.1191 239.164 33.3623 240.531 31.8486C241.312 30.9697 241.866 29.9525 242.191 28.7969H246.513C246.399 29.7572 246.016 30.8314 245.365 32.0195C244.73 33.1914 244.014 34.1517 243.217 34.9004C241.882 36.2025 240.23 37.0814 238.261 37.5371C237.203 37.7975 236.007 37.9277 234.672 37.9277C231.417 37.9277 228.658 36.7477 226.396 34.3877C224.133 32.0114 223.002 28.6911 223.002 24.4268C223.002 20.2275 224.141 16.8177 226.42 14.1973C228.699 11.5768 231.677 10.2666 235.355 10.2666ZM242.362 21.8389C242.183 19.9346 241.768 18.4128 241.117 17.2734C239.913 15.1576 237.903 14.0996 235.087 14.0996C233.069 14.0996 231.376 14.832 230.009 16.2969C228.642 17.7454 227.917 19.5928 227.836 21.8389H242.362Z" fill="#9B1465"/>
</svg>
