<svg width="14" height="10" viewBox="0 0 14 10" fill="none" xmlns="http://www.w3.org/2000/svg">
<path d="M6.09173 0.425409L0.301065 7.26355C-0.382321 8.07075 0.173081 9.33333 1.21023 9.33333H12.7916C13.0237 9.33354 13.2509 9.26461 13.4461 9.13479C13.6413 9.00497 13.7961 8.81977 13.892 8.60137C13.988 8.38297 14.021 8.14062 13.987 7.90335C13.9531 7.66608 13.8537 7.44395 13.7007 7.26355L7.91007 0.426657C7.79674 0.292652 7.65698 0.18525 7.50017 0.111661C7.34336 0.0380722 7.17313 0 7.0009 0C6.82868 0 6.65844 0.0380722 6.50163 0.111661C6.34482 0.18525 6.20506 0.292652 6.09173 0.426657V0.425409Z" fill="#414141"/>
</svg>
