<svg width="19" height="38" viewBox="0 0 19 38" fill="none" xmlns="http://www.w3.org/2000/svg">
<path d="M6.5 10.25C7.48891 10.25 8.45561 9.95676 9.27785 9.40735C10.1001 8.85794 10.741 8.07705 11.1194 7.16342C11.4978 6.24979 11.5969 5.24446 11.4039 4.27455C11.211 3.30465 10.7348 2.41373 10.0355 1.71447C9.33627 1.01521 8.44536 0.539002 7.47545 0.346076C6.50555 0.15315 5.50021 0.252166 4.58658 0.630605C3.67295 1.00904 2.89206 1.64991 2.34265 2.47215C1.79325 3.2944 1.5 4.2611 1.5 5.25C1.50149 6.57563 2.02875 7.84653 2.96611 8.78389C3.90347 9.72125 5.17437 10.2485 6.5 10.25ZM6.5 2.75C6.99445 2.75 7.4778 2.89662 7.88893 3.17133C8.30005 3.44603 8.62048 3.83648 8.8097 4.29329C8.99892 4.75011 9.04843 5.25278 8.95196 5.73773C8.8555 6.22268 8.6174 6.66814 8.26777 7.01777C7.91814 7.3674 7.47268 7.6055 6.98773 7.70197C6.50277 7.79843 6.00011 7.74892 5.54329 7.5597C5.08648 7.37048 4.69603 7.05005 4.42133 6.63893C4.14662 6.2278 4 5.74446 4 5.25C4.00074 4.58719 4.26438 3.95174 4.73305 3.48306C5.20173 3.01438 5.83719 2.75075 6.5 2.75ZM16.653 18.6383C15.4795 17.318 13.9137 16.4774 11.7616 16.0206L9.8243 11.5H2.91586L0.875 25.7862V30.25H5.25V37.75H12.75V30.25H19V26.5C19 22.9866 18.2323 20.415 16.653 18.6383ZM16.5 27.75H10.25V35.25H7.75V27.75H3.375V25.9638L5.08414 14H8.1757L9.99531 18.2456L10.6695 18.358C12.5835 18.677 13.8908 19.2938 14.7845 20.2992C15.9388 21.5979 16.5 23.6262 16.5 26.5V27.75Z" fill="black"/>
</svg>
